# xmcd
#
# Track frame offsets: 
#        150
#        54022
#        68092
#        76344
#        104484
#        112973
#        124457
#        136637
#        158162
#        172593
#        179847
#        195343
#        205420
#        222250
#        251964
#        258969
#        275594
#        296949
#        311378
#        329316
#
# Disc length: 4696 seconds
#
# Revision: 0
# Processed by: cddbd v1.5.2PL0 Copyright (c) Steve Scherf et al.
# Submitted via: ExactAudioCopy v0.99pb5
#
DISCID=27125614
DTITLE=The Rolling Stones  - Girls, Pills and Powders - CD 5
DYEAR=1900
DGENRE=
TTITLE0=Munich Hilton, take 1
TTITLE1=Golden Caddy, take 1
TTITLE2=Golden Caddy, take 2
TTITLE3=Golden Caddy, take 4
TTITLE4=Broken Toe
TTITLE5=Armpit Blues
TTITLE6=Brown Leaves, take 2
TTITLE7=Light UP
TTITLE8=Much Spreading
TTITLE9=Stay Where You Are
TTITLE10=I Can't Help It, take 5
TTITLE11=Broken Head Blues
TTITLE12=I Can't Help It, take 3
TTITLE13=Munich Hilton, take 2
TTITLE14=Follow You
TTITLE15=Shattered, take 1
TTITLE16=Feel No Pain No More
TTITLE17=Los Trios Guitaros
TTITLE18=Up Against The Wall, take 1
TTITLE19=Slow Blues
EXTD=
EXTT0=
EXTT1=
EXTT2=
EXTT3=
EXTT4=
EXTT5=
EXTT6=
EXTT7=
EXTT8=
EXTT9=
EXTT10=
EXTT11=
EXTT12=
EXTT13=
EXTT14=
EXTT15=
EXTT16=
EXTT17=
EXTT18=
EXTT19=
PLAYORDER=
